<svg id="Layer_1" data-name="Layer 1" xmlns="http://www.w3.org/2000/svg" xmlns:xlink="http://www.w3.org/1999/xlink" viewBox="0 0 294.1725 38.088"><title>Yardi Breeze</title><defs><style>.cls-1{fill:#aaabaa;}.cls-2{fill:#74c011;}.cls-3{fill:url(#linear-gradient);}.cls-4{fill:url(#linear-gradient-2);}.cls-5{fill:url(#linear-gradient-3);}.cls-6{fill:url(#linear-gradient-4);}</style><linearGradient id="linear-gradient" x1="22.5509" y1="14.858" x2="55.2744" y2="14.858" gradientUnits="userSpaceOnUse"><stop offset="0" stop-color="#398a41"/><stop offset="0.3721" stop-color="#55a42a"/><stop offset="0.7561" stop-color="#6cb818"/><stop offset="1" stop-color="#74c011"/></linearGradient><linearGradient id="linear-gradient-2" x1="50.5886" y1="25.502" x2="13.9454" y2="25.502" gradientUnits="userSpaceOnUse"><stop offset="0" stop-color="#398a41"/><stop offset="0.3718" stop-color="#55a42a"/><stop offset="0.7553" stop-color="#6cb818"/><stop offset="0.999" stop-color="#74c011"/></linearGradient><linearGradient id="linear-gradient-3" x1="9.0338" y1="19.1441" x2="25.1306" y2="19.1441" xlink:href="#linear-gradient"/><linearGradient id="linear-gradient-4" y1="36.0078" x2="39.362" y2="36.0078" gradientUnits="userSpaceOnUse"><stop offset="0" stop-color="#398a41"/><stop offset="0.3714" stop-color="#55a42a"/><stop offset="0.7546" stop-color="#6cb818"/><stop offset="0.9981" stop-color="#74c011"/></linearGradient></defs><polygon class="cls-1" points="81.419 23.559 81.419 32.454 76.923 32.454 76.923 23.542 68.237 9.894 73.523 9.894 79.195 19.466 84.867 9.894 89.992 9.894 81.419 23.559"/><path class="cls-1" d="M100.434,9.8936H94.955l-8.7823,22.56H90.862L92.8279,27.2h9.62l1.9659,5.2533h4.8021ZM94.3749,23.0591l3.2712-8.7179,3.2552,8.7179Z"/><path class="cls-1" d="M123.01,23.4135a9.9835,9.9835,0,0,0,2.9086-.7009,7.1046,7.1046,0,0,0,2.1755-1.3939,5.6961,5.6961,0,0,0,1.3617-2.0143,6.7565,6.7565,0,0,0,.4673-2.5461,7.4842,7.4842,0,0,0-.5318-2.8925,5.556,5.556,0,0,0-1.5792-2.1594,7.2448,7.2448,0,0,0-2.5944-1.3454,12.3333,12.3333,0,0,0-3.5613-.4674h-9.54v22.56h4.496V23.478h1.3213l6.5747,8.9757h5.4467Zm-6.3974-3.8512V14.035h4.9632a4.8987,4.8987,0,0,1,2.7636.6526,2.3265,2.3265,0,0,1,.9588,2.0707,2.4528,2.4528,0,0,1-.9346,2.1191,4.6993,4.6993,0,0,1-2.7878.6849Z"/><path class="cls-1" d="M154.2072,16.5408A10.0467,10.0467,0,0,0,151.83,12.98a10.6576,10.6576,0,0,0-3.6983-2.28,13.6534,13.6534,0,0,0-4.8021-.8057h-9.298v22.56h9.298a13.6443,13.6443,0,0,0,4.8021-.8057,10.6544,10.6544,0,0,0,3.6983-2.28,10.0467,10.0467,0,0,0,2.3768-3.5612,12.3313,12.3313,0,0,0,.838-4.6329A12.3328,12.3328,0,0,0,154.2072,16.5408Zm-4.3025,7.4609a5.8769,5.8769,0,0,1-3.5129,3.7144,8.3022,8.3022,0,0,1-3.11.5317h-4.7538V14.1h4.7538a8.4233,8.4233,0,0,1,3.11.5236,5.8032,5.8032,0,0,1,3.5129,3.6983,8.9742,8.9742,0,0,1,.4351,2.8523A8.8433,8.8433,0,0,1,149.9047,24.0017Z"/><rect class="cls-1" x="159.0898" y="9.8936" width="4.4959" height="22.5601"/><path class="cls-2" d="M181.8485,13.064a10.0427,10.0427,0,0,0-6.0926,2.0442V10.987a1.9843,1.9843,0,0,0-3.9683,0V23.1249A10.0611,10.0611,0,1,0,181.8485,13.064Zm0,16.1538a6.09,6.09,0,0,1-6.0926-6.0929v-.04a6.0928,6.0928,0,1,1,6.0926,6.133Z"/><path class="cls-2" d="M204.2954,13.1841a10.0673,10.0673,0,0,0-10.0609,10.0612V31.302c0,1.0824.0818,2.0043,1.204,2.0043,1.0824,0,2.7642-.9219,2.7642-2.0043V23.2453a6.09,6.09,0,0,1,6.0927-6.0928A2.01,2.01,0,0,0,206.3,15.1482,1.9763,1.9763,0,0,0,204.2954,13.1841Z"/><path class="cls-2" d="M216.24,13.1441A10.0419,10.0419,0,0,0,206.1786,23.205c0,5.5316,3.69,10.0612,9.2612,10.0612a11.9666,11.9666,0,0,0,6.9728-1.7236,2.0869,2.0869,0,0,0,.9624-2.6454,1.9173,1.9173,0,0,0-2.6458-.922A7.8651,7.8651,0,0,1,216.24,29.298a6.11,6.11,0,0,1-5.7722-4.1288h13.8292a1.9762,1.9762,0,0,0,2.0041-1.9642A9.87,9.87,0,0,0,216.24,13.1441Zm-5.7722,8.0569a6.1283,6.1283,0,0,1,5.7722-4.0887,5.8629,5.8629,0,0,1,5.812,4.0887Z"/><path class="cls-2" d="M238.7666,13.1441A10.0416,10.0416,0,0,0,228.7057,23.205c0,5.5316,3.6892,10.0612,9.2608,10.0612a11.9678,11.9678,0,0,0,6.9732-1.7236,2.0868,2.0868,0,0,0,.9619-2.6454,1.9168,1.9168,0,0,0-2.6455-.922,7.8662,7.8662,0,0,1-4.4895,1.3228,6.11,6.11,0,0,1-5.7719-4.1288h13.8288a1.9762,1.9762,0,0,0,2.0042-1.9642A9.87,9.87,0,0,0,238.7666,13.1441Zm-5.7719,8.0569a6.1278,6.1278,0,0,1,5.7719-4.0887,5.8633,5.8633,0,0,1,5.8123,4.0887Z"/><path class="cls-2" d="M265.6223,29.298h-8.4979l10.0209-12.9472a1.8867,1.8867,0,0,0,.2006-2.0844,1.9381,1.9381,0,0,0-1.8038-1.1223h-12.466a1.9673,1.9673,0,0,0-1.9642,1.9641,2.0019,2.0019,0,0,0,1.9642,2.0041h8.4975l-10.0207,12.907a1.9459,1.9459,0,0,0-.2,2.1244c.32.6816.242,1.1225,1.0037,1.1225h12.4661c1.0821,0,2.7642-.9219,2.7642-2.0043A1.9674,1.9674,0,0,0,265.6223,29.298Z"/><path class="cls-2" d="M279.6916,13.1441A10.0417,10.0417,0,0,0,269.6305,23.205c0,5.5316,3.6894,10.0612,9.2611,10.0612a11.9681,11.9681,0,0,0,6.9731-1.7236,2.0868,2.0868,0,0,0,.9619-2.6454,1.9169,1.9169,0,0,0-2.6455-.922,7.8662,7.8662,0,0,1-4.49,1.3228,6.11,6.11,0,0,1-5.7721-4.1288h13.8289a1.9762,1.9762,0,0,0,2.0043-1.9642A9.87,9.87,0,0,0,279.6916,13.1441ZM273.92,21.201a6.128,6.128,0,0,1,5.7721-4.0887,5.8634,5.8634,0,0,1,5.8123,4.0887Z"/><path class="cls-1" d="M291.2432,10.0127a1.9828,1.9828,0,0,1,.7994.1637,2.0585,2.0585,0,0,1,.6549.4435,2.1314,2.1314,0,0,1,.4412.661,2.0485,2.0485,0,0,1,.1644.8155,1.9845,1.9845,0,0,1-.1644.8033,2.0718,2.0718,0,0,1-.4443.6518,2.1235,2.1235,0,0,1-.6549.44,1.9626,1.9626,0,0,1-.7963.1637,2.0607,2.0607,0,0,1-.8179-.1637,2.1522,2.1522,0,0,1-.6687-.44,2.076,2.076,0,0,1-.4458-.6518,1.9846,1.9846,0,0,1-.1645-.8033,2.0486,2.0486,0,0,1,.1645-.8155,2.0908,2.0908,0,0,1,.4458-.661,2.1205,2.1205,0,0,1,.6687-.4435A2.0607,2.0607,0,0,1,291.2432,10.0127Zm0,3.9854a1.8576,1.8576,0,0,0,.7363-.1476,1.89,1.89,0,0,0,1.1592-1.7541,1.9385,1.9385,0,0,0-.1476-.7555,1.883,1.883,0,0,0-.4059-.61,1.9582,1.9582,0,0,0-.6026-.41,1.8094,1.8094,0,0,0-.7394-.1507,1.8936,1.8936,0,0,0-.7548.1507,1.9788,1.9788,0,0,0-.6149.41,1.9233,1.9233,0,0,0-.412.61,1.886,1.886,0,0,0-.1507.7555,1.8248,1.8248,0,0,0,.1507.7433,1.9261,1.9261,0,0,0,1.7817,1.1584Zm.126-3.0162a.9022.9022,0,0,1,.5581.1607.5362.5362,0,0,1,.2106.45.546.546,0,0,1-.2106.45.88.88,0,0,1-.5581.1668h-.0184l.7871.9377h-.1768L291.18,12.21h-.4966v.9377h-.146v-2.166Zm-.6856.1322v.97h.6795a.7562.7562,0,0,0,.46-.126.425.425,0,0,0,.1707-.3651.4119.4119,0,0,0-.1707-.3559.772.772,0,0,0-.46-.123Z"/><path class="cls-3" d="M44.4244,7.9855l-.577.0071-.1224-.39a10.834,10.834,0,0,0-21.1663,2.7817l-.0078.1971a2.1187,2.1187,0,0,0,4.2207.1507,2.4152,2.4152,0,0,0,.0146-.2633,6.442,6.442,0,0,1,.4018-1.9359,6.61,6.61,0,0,1,12.7756,1.6321,2.9935,2.9935,0,0,0,.0512.3608l.0133.0852a2.1561,2.1561,0,0,0,2.1187,1.9407,2.7886,2.7886,0,0,0,.7635-.1544l.0767-.0232a6.6033,6.6033,0,0,1,7.9149,7.8544l-.0112.0477a6.6218,6.6218,0,0,1-.3021.9974,15.6963,15.6963,0,0,1-6.96,8.4449l.5081,0c.2793,0,1.2464-.09,1.5636-.1272A10.84,10.84,0,0,0,44.4244,7.9855Z"/><path class="cls-4" d="M45.2135,25.4105l-16.6.003L18.42,25.4153a5.842,5.842,0,0,0-.7778.0542,2.16,2.16,0,0,0-.2912.042A4.0972,4.0972,0,0,0,13.97,29.3584l-.0242.3721,14.3524-.0059,15.331-.0062a15.6963,15.6963,0,0,0,6.96-8.4449A6.6078,6.6078,0,0,1,45.2135,25.4105Z"/><path class="cls-5" d="M25.0954,17.4459l.0352-.3813H13.4321A4.0079,4.0079,0,0,0,9.07,20.8413l-.0364.3823h11.698A4.0025,4.0025,0,0,0,25.0954,17.4459Z"/><path class="cls-6" d="M37.3275,33.9338l-32.93-.0061a4.0107,4.0107,0,0,0-4.3612,3.778L0,38.088H.3843l36.4249-.0038c.0846-.0122.1272-.017.1807-.0255l.2555.0218a2.0738,2.0738,0,1,0,.0821-4.1467Z"/></svg>
